<svg width="110.000000" height="104.575439" viewBox="0 0 110 104.575" fill="none" xmlns="http://www.w3.org/2000/svg" xmlns:xlink="http://www.w3.org/1999/xlink">
	<desc>
			Created with Pixso.
	</desc>
	<defs/>
	<path id="Vector" d="M93.4033 35.4685L106.743 35.4685L106.743 49.8452L93.4033 49.8452L93.4033 77.3167C93.4033 86.6665 93.9814 86.6389 95.1396 87.7341C96.2979 88.8296 98.6133 89.3772 102.087 89.3772C103.245 89.5142 104.258 89.3772 105.416 89.2402C106.43 89.2402 107.829 88.4646 108.553 87.7341L108.553 102.795C106.743 103.568 104.692 104.438 102.666 104.438C100.495 104.575 98.4688 104.575 96.4424 104.575C96.3066 104.575 94.0146 104.575 93.0498 104.438C90.6992 104.105 87.2041 102.864 85.0332 101.632C83.8271 100.947 80.6914 97.8662 80.3291 96.4971C79.2432 94.7856 78.6396 91.4309 78.6396 87.8711L78.6396 49.8452L65.8555 49.8452L65.8555 35.4685L78.6396 35.4685L78.6396 11.5076L93.4033 11.5076L93.4033 35.4685Z" fill="#10239E" fill-opacity="1.000000" fill-rule="nonzero"/>
	<path id="Vector" d="M2.1709 49.8452L12.3027 49.8452L12.3027 102.932L28.5127 102.932L28.5127 49.8452L40.5264 49.8452L40.5264 35.4685L28.5127 35.4685L28.5127 34.2363C28.5127 31.3611 29.0918 28.6304 30.25 27.3982C31.4082 26.166 33.4346 25.4812 36.3291 25.4812C38.9346 25.4812 41.3945 25.6182 43.8555 25.8921L43.8555 11.5076L38.3555 11.5076L32.9277 11.5076C26.0527 11.5076 20.625 14.8245 17.3682 18.0112C13.1709 22.1189 12.3027 26.8425 12.3027 33.0039L12.3027 35.4685L2.1709 35.4685L2.1709 49.8452ZM61.5127 56.0066L45.7373 56.0066L45.7373 102.932L61.5127 102.932L61.5127 56.0066Z" fill="#10239E" fill-opacity="1.000000" fill-rule="evenodd"/>
	<path id="Vector" d="M61.5127 42.7939C61.5127 46.9646 58.085 50.3457 53.9141 50.3457L53.9141 50.3457C49.7432 50.3457 46.3154 46.9646 46.3154 42.7939L46.3154 42.7939C46.3154 38.623 49.7432 35.2419 53.9141 35.2419L53.9141 35.2419C58.085 35.2419 61.5127 38.623 61.5127 42.7939L61.5127 42.7939Z" fill="#40A9FF" fill-opacity="1.000000" fill-rule="nonzero"/>
</svg>
