<svg width="133.000000" height="33.182892" viewBox="0 0 133 33.1829" fill="none" xmlns="http://www.w3.org/2000/svg" xmlns:xlink="http://www.w3.org/1999/xlink">
	<desc>
			Created with Pixso.
	</desc>
	<defs/>
	<path id="Vector" d="M86.2627 16.1457L90.9233 16.1457L90.9233 19.1985L90.9922 19.1985C91.1997 18.7216 91.5103 18.2445 91.9248 17.7993C92.3042 17.3542 92.7529 17.0043 93.271 16.6863C93.7544 16.3683 94.3066 16.1457 94.8936 15.9549C95.4458 15.7959 96.0674 15.7323 96.689 15.7005C96.9995 15.7005 97.3447 15.7641 97.7593 15.8595L97.7593 20.0572C97.5176 20.0254 97.2412 19.9936 96.9307 19.9618C96.5854 19.93 96.2744 19.8982 95.9985 19.8982C95.1006 19.8982 94.3413 20.0572 93.7197 20.3116C93.0981 20.5978 92.5806 20.9794 92.2007 21.4564C91.8208 21.9334 91.5449 22.474 91.4067 23.11C91.2339 23.746 91.165 24.4456 91.165 25.177L91.165 32.6606L86.2627 32.6606L86.2627 16.1457Z" fill="#10239E" fill-opacity="1.000000" fill-rule="nonzero"/>
	<path id="Vector" d="M79.6616 22.6012C79.4199 21.4564 79.0054 20.5978 78.4185 19.9936C77.8315 19.4211 76.9341 19.1349 75.7603 19.1031C74.9663 19.1031 74.3105 19.2303 73.7925 19.4848C73.2744 19.7392 72.8604 20.0254 72.5498 20.3752C72.2388 20.7568 72.0317 21.1384 71.8936 21.52C71.7554 21.9334 71.6865 22.2832 71.6865 22.6012L79.6616 22.6012ZM71.6865 25.4632C71.7554 26.926 72.1353 28.0072 72.895 28.6432C73.6196 29.311 74.6899 29.629 76.0708 29.629C77.0376 29.629 77.9009 29.4064 78.626 28.9612C79.3164 28.516 79.7651 28.0072 79.9375 27.4984L84.2529 27.4984C83.5625 29.47 82.4922 30.901 81.0771 31.7278C79.627 32.5865 77.9009 32.9998 75.8984 32.9998C74.4829 32.9998 73.2056 32.8091 72.1006 32.3957C70.9614 31.9822 69.9951 31.3781 69.2354 30.6148C68.4414 29.8516 67.8198 28.9612 67.4058 27.88C66.9912 26.8306 66.7842 25.654 66.7842 24.382C66.7842 23.1736 66.9912 22.0288 67.4399 20.9476C67.8545 19.8982 68.4761 18.976 69.3042 18.2127C70.0986 17.4496 71.0649 16.8135 72.1699 16.3683C73.2744 15.9231 74.5176 15.7005 75.8984 15.7005C77.4175 15.7005 78.7295 15.9867 79.8687 16.5273C80.9731 17.0679 81.9058 17.7993 82.6304 18.6898C83.3555 19.612 83.8735 20.6614 84.2188 21.8062C84.5293 22.9828 84.6328 24.1912 84.564 25.4632L71.6865 25.4632Z" fill="#10239E" fill-opacity="1.000000" fill-rule="nonzero"/>
	<path id="Vector" d="M60.7617 32.6606L55.3066 32.6606L49.2275 16.1457L54.3716 16.1457L58.1348 27.3712L58.2036 27.3712L61.9668 16.1457L66.8345 16.1457L60.7617 32.6606Z" fill="#10239E" fill-opacity="1.000000" fill-rule="nonzero"/>
	<path id="Vector" d="M44.3179 22.6012C44.0762 21.4564 43.6616 20.5978 43.0747 19.9936C42.4878 19.4211 41.5903 19.1349 40.4165 19.1031C39.6226 19.1031 38.9668 19.2303 38.4487 19.4848C37.9307 19.7392 37.5166 20.0254 37.2061 20.3752C36.895 20.7568 36.688 21.1384 36.5498 21.52C36.4116 21.9334 36.3428 22.2832 36.3428 22.6012L44.3179 22.6012ZM36.3428 25.4632C36.4116 26.926 36.7915 28.0072 37.5513 28.6432C38.2759 29.311 39.3462 29.629 40.7271 29.629C41.6938 29.629 42.5571 29.4064 43.2822 28.9612C43.9727 28.516 44.4214 28.0072 44.5938 27.4984L48.9092 27.4984C48.2188 29.47 47.1484 30.901 45.7334 31.7278C44.2832 32.5865 42.5571 32.9998 40.5547 32.9998C39.1392 32.9998 37.8618 32.8091 36.7568 32.3957C35.6177 31.9822 34.6509 31.3781 33.8916 30.6148C33.0977 29.8516 32.4761 28.9612 32.062 27.88C31.6475 26.8306 31.4404 25.654 31.4404 24.382C31.4404 23.1736 31.6475 22.0288 32.0962 20.9476C32.5107 19.8982 33.1323 18.976 33.9604 18.2127C34.7549 17.4496 35.7212 16.8135 36.8262 16.3683C37.9307 15.9231 39.1738 15.7005 40.5547 15.7005C42.0737 15.7005 43.3857 15.9867 44.5249 16.5273C45.6294 17.0679 46.5615 17.7993 47.2866 18.6898C48.0117 19.612 48.5298 20.6614 48.875 21.8062C49.1855 22.9828 49.2891 24.1912 49.2202 25.4632L36.3428 25.4632Z" fill="#10239E" fill-opacity="1.000000" fill-rule="nonzero"/>
	<path id="Vector" d="M24.8569 9.12848L29.6904 9.12848L29.6904 32.6606L24.8569 32.6606L24.8569 9.12848Z" fill="#10239E" fill-opacity="1.000000" fill-rule="nonzero"/>
	<path id="Vector" d="M17.5474 17.2245C17.4434 16.6575 17.2358 16.1535 16.9243 15.6809C16.5781 15.2084 16.1978 14.7989 15.7129 14.4208C15.2285 14.0743 14.6748 13.7908 14.0518 13.6018C13.4287 13.4128 12.8057 13.3183 12.1479 13.2868C10.9023 13.2868 9.86377 13.5073 9.0332 13.9483C8.16797 14.3893 7.47559 14.9564 6.95654 15.6809C6.40283 16.4055 6.02197 17.2245 5.77979 18.1381C5.5376 19.0832 5.43359 20.0283 5.43359 21.0048C5.43359 21.9499 5.5376 22.895 5.77979 23.777C6.02197 24.6591 6.40283 25.4781 6.95654 26.1712C7.47559 26.8957 8.16797 27.4628 9.0332 27.9038C9.86377 28.3448 10.9023 28.5338 12.1479 28.5338C13.8096 28.5338 15.0898 28.0928 16.0244 27.1478C16.959 26.2342 17.5474 25.0056 17.7549 23.4935L23.0156 23.4935C22.8774 24.9111 22.4966 26.1712 21.9429 27.3053C21.3545 28.4393 20.5933 29.4159 19.6587 30.2035C18.6895 31.0225 17.582 31.6211 16.3359 32.0306C15.0552 32.4716 13.6709 32.6606 12.1479 32.6606C10.2446 32.6606 8.54883 32.3771 7.02588 31.7786C5.50293 31.18 4.25684 30.361 3.21875 29.2899C2.18066 28.2503 1.38428 27.0217 0.830566 25.6042C0.276855 24.1866 0 22.6429 0 21.0048C0 19.3352 0.276855 17.7916 0.830566 16.3425C1.38428 14.8934 2.18066 13.6333 3.21875 12.5622C4.25684 11.5226 5.50293 10.6721 7.02588 10.0421C8.54883 9.44351 10.2446 9.15997 12.1479 9.12848C13.498 9.12848 14.7783 9.3175 15.9897 9.664C17.2012 10.0421 18.2739 10.5461 19.2432 11.2391C20.2124 11.9322 21.0083 12.7512 21.6313 13.7593C22.2544 14.7674 22.6353 15.933 22.8081 17.2245L17.5474 17.2245Z" fill="#10239E" fill-opacity="1.000000" fill-rule="nonzero"/>
	<path id="Vector" d="M127.752 11.2548L131.995 11.2548L131.995 15.8166L127.752 15.8166L127.752 24.5335C127.752 27.5003 127.937 27.4915 128.305 27.8391C128.673 28.1866 129.41 28.3604 130.514 28.3604C130.882 28.4038 131.205 28.3604 131.573 28.317C131.895 28.317 132.34 28.0709 132.57 27.8391L132.57 32.6181C131.995 32.8634 131.343 33.1394 130.698 33.1394C130.008 33.1829 129.363 33.1829 128.719 33.1829C128.676 33.1829 127.947 33.1829 127.64 33.1394C126.893 33.0336 125.781 32.6398 125.09 32.2488C124.707 32.0316 123.709 31.054 123.594 30.6196C123.249 30.0765 123.057 29.0121 123.057 27.8825L123.057 15.8166L118.991 15.8166L118.991 11.2548L123.057 11.2548L123.057 3.65176L127.752 3.65176L127.752 11.2548Z" fill="#10239E" fill-opacity="1.000000" fill-rule="nonzero"/>
	<path id="Vector" d="M98.7373 15.8166L101.959 15.8166L101.959 32.6615L107.115 32.6615L107.115 15.8166L110.936 15.8166L110.936 11.2548L107.115 11.2548L107.115 10.8638C107.115 9.95142 107.299 9.08499 107.667 8.69397C108.036 8.30298 108.68 8.08575 109.601 8.08575C110.429 8.08575 111.212 8.12918 111.995 8.21606L111.995 3.65176L110.245 3.65176L108.519 3.65176C106.333 3.65176 104.606 4.70419 103.571 5.71545C102.236 7.0188 101.959 8.5177 101.959 10.4727L101.959 11.2548L98.7373 11.2548L98.7373 15.8166ZM117.61 17.7716L112.593 17.7716L112.593 32.6615L117.61 32.6615L117.61 17.7716Z" fill="#10239E" fill-opacity="1.000000" fill-rule="evenodd"/>
	<path id="Vector" d="M115.214 15.9754L115.173 15.9754C113.85 15.9754 112.777 14.9026 112.777 13.5792C112.777 12.2557 113.85 11.1829 115.173 11.1829L115.214 11.1829C116.538 11.1829 117.61 12.2557 117.61 13.5792C117.61 14.9026 116.538 15.9754 115.214 15.9754Z" fill="#40A9FF" fill-opacity="1.000000" fill-rule="evenodd"/>
</svg>
