<svg width="309.000000" height="76.420471" viewBox="0 0 309 76.4205" fill="none" xmlns="http://www.w3.org/2000/svg" xmlns:xlink="http://www.w3.org/1999/xlink">
	<desc>
			Created with Pixso.
	</desc>
	<defs/>
	<path id="Vector" d="M200.415 37.1844L211.243 37.1844L211.243 44.2152L211.404 44.2152C211.885 43.1166 212.607 42.0181 213.569 40.9927C214.452 39.9674 215.494 39.1618 216.698 38.4295C217.82 37.6971 219.104 37.1844 220.467 36.745C221.751 36.3788 223.194 36.2324 224.638 36.1591C225.36 36.1591 226.162 36.3056 227.125 36.5253L227.125 46.1926C226.563 46.1193 225.921 46.0461 225.2 45.9729C224.397 45.8996 223.676 45.8264 223.034 45.8264C220.948 45.8264 219.184 46.1926 217.74 46.7785C216.296 47.4376 215.093 48.3164 214.211 49.415C213.329 50.5135 212.687 51.7586 212.366 53.2233C211.965 54.688 211.805 56.2993 211.805 57.9837L211.805 75.2188L200.415 75.2188L200.415 37.1844Z" fill="#10239E" fill-opacity="1.000000" fill-rule="nonzero"/>
	<path id="Vector" d="M185.078 52.0515C184.516 49.415 183.554 47.4376 182.19 46.0461C180.826 44.7278 178.741 44.0687 176.014 43.9955C174.169 43.9955 172.645 44.2884 171.442 44.8743C170.239 45.4602 169.276 46.1193 168.554 46.9249C167.833 47.8038 167.351 48.6826 167.031 49.5615C166.71 50.5135 166.549 51.3192 166.549 52.0515L185.078 52.0515ZM166.549 58.6429C166.71 62.0117 167.592 64.5018 169.357 65.9665C171.041 67.5045 173.528 68.2369 176.736 68.2369C178.982 68.2369 180.987 67.7242 182.671 66.6989C184.275 65.6736 185.318 64.5018 185.719 63.33L195.745 63.33C194.141 67.8707 191.655 71.1664 188.366 73.0705C184.997 75.0479 180.987 76 176.335 76C173.046 76 170.079 75.5605 167.512 74.6085C164.865 73.6564 162.619 72.2649 160.854 70.5072C159.01 68.7495 157.566 66.6989 156.604 64.2088C155.641 61.792 155.16 59.0822 155.16 56.1528C155.16 53.3698 155.641 50.7332 156.684 48.2432C157.646 45.8264 159.09 43.7025 161.015 41.9448C162.86 40.1871 165.105 38.7224 167.672 37.6971C170.239 36.6718 173.126 36.1591 176.335 36.1591C179.864 36.1591 182.912 36.8182 185.559 38.0633C188.125 39.3083 190.291 40.9928 191.976 43.0434C193.66 45.1673 194.863 47.5841 195.665 50.2206C196.387 52.9304 196.628 55.7134 196.467 58.6429L166.549 58.6429Z" fill="#10239E" fill-opacity="1.000000" fill-rule="nonzero"/>
	<path id="Vector" d="M141.168 75.2188L128.495 75.2188L114.371 37.1845L126.322 37.1845L135.065 63.0371L135.225 63.0371L143.968 37.1845L155.277 37.1845L141.168 75.2188Z" fill="#10239E" fill-opacity="1.000000" fill-rule="nonzero"/>
	<path id="Vector" d="M102.964 52.0515C102.402 49.415 101.44 47.4376 100.076 46.0461C98.7126 44.7278 96.6274 44.0687 93.9001 43.9955C92.0554 43.9955 90.5315 44.2884 89.3284 44.8743C88.1252 45.4602 87.1626 46.1193 86.4407 46.9249C85.719 47.8038 85.2375 48.6826 84.9167 49.5615C84.5959 50.5135 84.4355 51.3192 84.4355 52.0515L102.964 52.0515ZM84.4355 58.6429C84.5959 62.0117 85.4783 64.5018 87.2429 65.9665C88.9272 67.5045 91.4138 68.2369 94.6221 68.2369C96.8679 68.2369 98.8733 67.7242 100.558 66.6989C102.162 65.6736 103.204 64.5018 103.605 63.33L113.632 63.33C112.027 67.8707 109.541 71.1664 106.252 73.0705C102.884 75.0479 98.8733 76 94.2209 76C90.9324 76 87.9648 75.5605 85.3982 74.6085C82.7512 73.6564 80.5054 72.2649 78.7407 70.5072C76.896 68.7495 75.4521 66.6989 74.4897 64.2088C73.5271 61.792 73.0459 59.0822 73.0459 56.1528C73.0459 53.3698 73.5271 50.7332 74.5698 48.2432C75.5325 45.8264 76.9761 43.7025 78.9011 41.9448C80.7458 40.1871 82.9917 38.7224 85.5586 37.6971C88.1252 36.6718 91.0127 36.1591 94.2209 36.1591C97.7502 36.1591 100.798 36.8182 103.445 38.0633C106.012 39.3083 108.177 40.9928 109.862 43.0434C111.546 45.1673 112.749 47.5841 113.552 50.2206C114.273 52.9304 114.514 55.7134 114.354 58.6429L84.4355 58.6429Z" fill="#10239E" fill-opacity="1.000000" fill-rule="nonzero"/>
	<path id="Vector" d="M57.7505 21.0235L68.9797 21.0235L68.9797 75.2188L57.7505 75.2188L57.7505 21.0235Z" fill="#10239E" fill-opacity="1.000000" fill-rule="nonzero"/>
	<path id="Vector" d="M40.7678 39.669C40.5266 38.3631 40.0442 37.2023 39.3206 36.114C38.5164 35.0258 37.6318 34.0826 36.5061 33.212C35.3804 32.4139 34.0938 31.761 32.6465 31.3257C31.199 30.8904 29.7517 30.6727 28.2239 30.6002C25.3291 30.6002 22.9167 31.108 20.9871 32.1237C18.9768 33.1394 17.3687 34.4453 16.1624 36.114C14.8757 37.7827 13.9915 39.669 13.4285 41.7729C12.8655 43.9495 12.6243 46.126 12.6243 48.3751C12.6243 50.5516 12.8655 52.7281 13.4285 54.7595C13.9915 56.7909 14.8757 58.6772 16.1624 60.2734C17.3687 61.942 18.9768 63.2479 20.9871 64.2636C22.9167 65.2794 25.3291 65.7147 28.2239 65.7147C32.0835 65.7147 35.0588 64.6989 37.2297 62.5224C39.4009 60.4185 40.7678 57.589 41.2502 54.1066L53.4727 54.1066C53.1509 57.3713 52.2666 60.2734 50.98 62.8852C49.613 65.497 47.844 67.7461 45.6729 69.5598C43.4214 71.4462 40.8484 72.8246 37.9536 73.7678C34.9783 74.7835 31.762 75.2188 28.2239 75.2188C23.8013 75.2188 19.8613 74.5658 16.3232 73.1873C12.7852 71.8089 9.89038 69.9226 7.47803 67.4559C5.06592 65.0617 3.21631 62.2322 1.92993 58.9675C0.643311 55.7027 0 52.1477 0 48.3751C0 44.5299 0.643311 40.9749 1.92993 37.6376C3.21631 34.3003 5.06592 31.3982 7.47803 28.9315C9.89038 26.5374 12.7852 24.5785 16.3232 23.1275C19.8613 21.749 23.8013 21.096 28.2239 21.0235C31.3599 21.0235 34.335 21.4588 37.1494 22.2569C39.9639 23.1275 42.4565 24.2883 44.708 25.8844C46.9595 27.4805 48.8088 29.3668 50.2563 31.6884C51.7036 34.01 52.5881 36.6944 52.9902 39.669L40.7678 39.669Z" fill="#10239E" fill-opacity="1.000000" fill-rule="nonzero"/>
	<path id="Vector" d="M296.808 25.9194L306.666 25.9194L306.666 36.4254L296.808 36.4254L296.808 56.5007C296.808 63.3333 297.236 63.313 298.092 64.1135C298.947 64.9139 300.658 65.3142 303.225 65.3142C304.081 65.4142 304.829 65.3142 305.685 65.2141C306.433 65.2141 307.468 64.6473 308.002 64.1135L308.002 75.1198C306.666 75.6847 305.15 76.3204 303.653 76.3204C302.049 76.4205 300.552 76.4205 299.054 76.4205C298.954 76.4205 297.26 76.4205 296.548 76.3204C294.811 76.0767 292.228 75.1698 290.624 74.2693C289.733 73.769 287.416 71.5177 287.148 70.5172C286.346 69.2664 285.9 66.815 285.9 64.2136L285.9 36.4254L276.454 36.4254L276.454 25.9194L285.9 25.9194L285.9 8.40942L296.808 8.40942L296.808 25.9194Z" fill="#10239E" fill-opacity="1.000000" fill-rule="nonzero"/>
	<path id="Vector" d="M229.397 36.4253L236.884 36.4253L236.884 75.2198L248.862 75.2198L248.862 36.4253L257.738 36.4253L257.738 25.9194L248.862 25.9194L248.862 25.0189C248.862 22.9177 249.289 20.9223 250.145 20.0218C251 19.1212 252.498 18.621 254.637 18.621C256.562 18.621 258.38 18.721 260.198 18.9211L260.198 8.40939L256.134 8.40939L252.124 8.40939C247.043 8.40939 243.033 10.8332 240.627 13.1621C237.525 16.1638 236.884 19.6158 236.884 24.1183L236.884 25.9194L229.397 25.9194L229.397 36.4253ZM273.245 40.9279L261.588 40.9279L261.588 75.2198L273.245 75.2198L273.245 40.9279Z" fill="#10239E" fill-opacity="1.000000" fill-rule="evenodd"/>
	<path id="Vector" d="M267.726 36.7911L267.534 36.7911C264.487 36.7911 262.016 34.3203 262.016 31.2725C262.016 28.2246 264.487 25.7538 267.534 25.7538L267.726 25.7538C270.774 25.7538 273.245 28.2246 273.245 31.2725C273.245 34.3204 270.774 36.7911 267.726 36.7911Z" fill="#40A9FF" fill-opacity="1.000000" fill-rule="evenodd"/>
</svg>
