<svg width="80.000000" height="80.000000" viewBox="0 0 80 80" fill="none" xmlns="http://www.w3.org/2000/svg" xmlns:xlink="http://www.w3.org/1999/xlink">
	<desc>
			Created with Pixso.
	</desc>
	<defs>
		<clipPath id="clip69_12317">
			<rect id="Suggested Icon" width="80.000000" height="80.000000" fill="white" fill-opacity="0"/>
		</clipPath>
	</defs>
	<g clip-path="url(#clip69_12317)">
		<path id="Vector" d="M40 5C20.6719 5 5 20.6719 5 40C5 59.3281 20.6719 75 40 75C59.3281 75 75 59.3281 75 40C75 20.6719 59.3281 5 40 5ZM37.5 23.125C37.5 22.7812 37.7812 22.5 38.125 22.5L41.875 22.5C42.2188 22.5 42.5 22.7812 42.5 23.125L42.5 44.375C42.5 44.7188 42.2188 45 41.875 45L38.125 45C37.7812 45 37.5 44.7188 37.5 44.375L37.5 23.125ZM40 57.5C39.0187 57.48 38.0844 57.0762 37.3974 56.375C36.7105 55.6738 36.3257 54.7314 36.3257 53.75C36.3257 52.7686 36.7105 51.8262 37.3974 51.125C38.0844 50.4238 39.0187 50.02 40 50C40.9813 50.02 41.9156 50.4238 42.6026 51.125C43.2895 51.8262 43.6743 52.7686 43.6743 53.75C43.6743 54.7314 43.2895 55.6738 42.6026 56.375C41.9156 57.0762 40.9813 57.48 40 57.5Z" fill="#2F54EB" fill-opacity="1.000000" fill-rule="nonzero"/>
	</g>
</svg>
