<svg width="80.000000" height="80.000000" viewBox="0 0 80 80" fill="none" xmlns="http://www.w3.org/2000/svg" xmlns:xlink="http://www.w3.org/1999/xlink">
	<desc>
			Created with Pixso.
	</desc>
	<defs>
		<clipPath id="clip41_26392">
			<rect id="Suggested Icon" width="80.000000" height="80.000000" fill="white" fill-opacity="0"/>
		</clipPath>
	</defs>
	<g clip-path="url(#clip41_26392)">
		<path id="Vector" d="M74.6636 66.875L42.1636 10.625C41.6792 9.78906 40.8433 9.375 39.9995 9.375C39.1558 9.375 38.312 9.78906 37.8354 10.625L5.33545 66.875C4.37451 68.5469 5.57764 70.625 7.49951 70.625L72.4995 70.625C74.4214 70.625 75.6245 68.5469 74.6636 66.875ZM37.4995 32.5C37.4995 32.1562 37.7808 31.875 38.1245 31.875L41.8745 31.875C42.2183 31.875 42.4995 32.1562 42.4995 32.5L42.4995 46.875C42.4995 47.2188 42.2183 47.5 41.8745 47.5L38.1245 47.5C37.7808 47.5 37.4995 47.2188 37.4995 46.875L37.4995 32.5ZM39.9995 60C39.0182 59.98 38.0839 59.5762 37.397 58.875C36.7101 58.1738 36.3253 57.2314 36.3253 56.25C36.3253 55.2686 36.7101 54.3262 37.397 53.625C38.0839 52.9238 39.0182 52.52 39.9995 52.5C40.9808 52.52 41.9152 52.9238 42.6022 53.625C43.2891 54.3262 43.6738 55.2686 43.6738 56.25C43.6738 57.2314 43.2891 58.1738 42.6022 58.875C41.9152 59.5762 40.9808 59.98 39.9995 60Z" fill="#FAAD14" fill-opacity="1.000000" fill-rule="nonzero"/>
	</g>
</svg>
